<svg xmlns="http://www.w3.org/2000/svg" width="685" height="550" fill="none" viewBox="0 0 685 550"><g clip-path="url(#a)"><path fill="#C16E0D" d="m311.743 0 75.996 167.282h136.929L448.672 0zM509.378 60.705l45.643 106.577h45.643L676.888 0h-136.93z"/><path fill="#B0B2B4" d="m331.826 60.705 45.643 106.577h45.643L499.108 0h-136.93z"/><path fill="#E8B13D" d="m0 0 76.224 167.282h136.93L136.929 0zM197.863 60.705l45.643 106.577h45.643L365.145 0H228.216z"/><path fill="#B0B2B4" d="M346.888 167.282 270.892 0l47.013 103.838-28.756 63.444z"/><path fill="#C16E0D" d="M513.942 207.676a168.7 168.7 0 0 0-56.141 9.585 193.98 193.98 0 0 1 86.64 161.577 193.978 193.978 0 0 1-86.64 161.577A168.6 168.6 0 0 0 513.942 550a171.164 171.164 0 0 0 171.162-171.162 171.164 171.164 0 0 0-171.162-171.162"/><path fill="#E8B13D" d="M171.162 550c94.53 0 171.162-76.632 171.162-171.162s-76.632-171.162-171.162-171.162S0 284.308 0 378.838 76.632 550 171.162 550"/><path fill="#B0B2B4" d="M336.618 207.676a174.4 174.4 0 0 0-52.718 7.988 191.246 191.246 0 0 1 0 326.577A182.6 182.6 0 0 0 336.618 550a171.162 171.162 0 1 0 0-342.324M366.286 0h-55.684000000000005l29.211 70.062"/><path fill="#E8B13D" d="m197.863 60.705 45.643 106.577h45.643L365.145 0H228.216z"/></g><defs><clipPath id="a"><path fill="#fff" d="M0 0h684.875v550H0z"/></clipPath></defs></svg>