<svg xmlns="http://www.w3.org/2000/svg" width="396" height="500" fill="none" viewBox="0 0 396 500"><mask id="a" width="381" height="500" x="9" y="0" maskUnits="userSpaceOnUse" style="mask-type:luminance"><path fill="#fff" d="M390 0H10v500h380z"/></mask><g mask="url(#a)"><path fill="#C16E0D" d="M211.381 280.277c31.521 0 50.784 12.111 50.784 36.331 0 13.842-7.005 24.223-19.263 29.413 17.513 5.189 26.269 17.3 26.269 34.602 0 25.952-21.015 39.792-54.288 39.792h-57.787V282.006h54.285zm-1.75 57.094c15.761 0 22.765-6.921 22.765-19.031 0-10.382-8.756-17.303-22.765-17.303h-22.765v34.603h22.765zm3.502 58.823c17.511 0 26.267-6.921 26.267-19.031 0-13.842-8.756-19.032-26.267-19.032h-26.267v38.063zm-5.253-193.772c-82.304 0-150.6 67.474-150.6 148.788S125.577 500 207.88 500s150.599-67.475 150.599-148.79c-1.752-81.314-68.296-148.788-150.599-148.788m22.764-31.142L151.843 0H10L88.8 171.28zm78.802 0L390 0H248.156l-29.769 65.744 49.032 107.266h42.027z"/></g></svg>