<svg xmlns="http://www.w3.org/2000/svg" width="396" height="500" fill="none" viewBox="0 0 396 500"><mask id="a" width="380" height="500" x="0" y="0" maskUnits="userSpaceOnUse" style="mask-type:luminance"><path fill="#fff" d="M380 0H0v500h380z"/></mask><g mask="url(#a)"><path fill="#D59C0B" d="M203.134 422.146c-45.53 0-73.549-27.681-73.549-72.665 0-44.983 29.77-72.664 75.3-72.664 17.511 0 33.271 3.46 45.53 8.65v27.681c-12.259-6.919-26.267-10.379-43.779-10.379-29.77 0-47.281 17.3-47.281 46.712 0 38.063 24.516 53.634 64.793 44.984v-29.413h-24.517v-24.221h52.536v69.204c-10.509 6.919-29.771 12.111-49.033 12.111m-5.254-219.724c-82.304 0-150.599 67.474-150.599 148.788S115.576 500 197.88 500s150.599-67.475 150.599-148.79c-1.752-81.314-68.296-148.788-150.599-148.788m22.766-31.142L141.843 0H0l78.802 171.28zm78.802 0L380 0H238.156l-29.768 65.744 49.031 107.266h42.029z"/></g></svg>