<svg xmlns="http://www.w3.org/2000/svg" width="396" height="500" fill="none" viewBox="0 0 396 500"><mask id="a" width="380" height="500" x="5" y="0" maskUnits="userSpaceOnUse" style="mask-type:luminance"><path fill="#fff" d="M385 0H5v500h380z"/></mask><g mask="url(#a)"><path fill="#8A8C8E" d="M197.627 422.146c-15.761 0-31.521-3.461-45.53-10.381v-27.682c14.009 8.65 29.769 13.84 45.53 13.84 17.511 0 28.019-6.919 28.019-17.3 0-12.111-12.258-15.571-26.268-19.031-31.521-6.921-47.281-17.3-47.281-41.523 0-25.952 21.014-41.523 56.037-41.523 14.01 0 29.77 3.46 42.026 8.652v24.221q-18.385-10.382-42.026-10.382c-15.761 0-26.268 5.192-26.268 15.571 0 10.382 10.507 13.842 26.268 19.032 26.266 6.92 47.281 13.841 47.281 43.254 0 25.95-21.015 43.252-57.788 43.252m5.253-219.724c-82.304 0-150.599 67.474-150.599 148.788S120.576 500 202.88 500s150.599-67.475 150.599-148.79c-1.752-81.314-68.296-148.788-150.599-148.788m22.766-31.142L146.843 0H5l78.802 171.28zm78.802 0L385 0H243.156l-29.768 65.744 49.031 107.266h42.029z"/></g></svg>